<svg xmlns="http://www.w3.org/2000/svg" fill="none" viewBox="0 0 91 56" height="56" width="91">
<g clip-path="url(#clip0_16970_21877)">
<path fill="black" d="M38.7456 28.489C38.7456 32.3755 35.587 35.2394 31.7107 35.2394C27.8344 35.2394 24.6758 32.3755 24.6758 28.489C24.6758 24.575 27.8344 21.7385 31.7107 21.7385C35.587 21.7385 38.7456 24.575 38.7456 28.489ZM35.6661 28.489C35.6661 26.0603 33.8354 24.3985 31.7107 24.3985C29.586 24.3985 27.7553 26.0603 27.7553 28.489C27.7553 30.8933 29.586 32.5794 31.7107 32.5794C33.8354 32.5794 35.6661 30.8903 35.6661 28.489Z"></path>
<path fill="black" d="M53.9224 28.489C53.9224 32.3755 50.7638 35.2394 46.8875 35.2394C43.0111 35.2394 39.8525 32.3755 39.8525 28.489C39.8525 24.5781 43.0111 21.7385 46.8875 21.7385C50.7638 21.7385 53.9224 24.575 53.9224 28.489ZM50.8428 28.489C50.8428 26.0603 49.0122 24.3985 46.8875 24.3985C44.7628 24.3985 42.9321 26.0603 42.9321 28.489C42.9321 30.8933 44.7628 32.5794 46.8875 32.5794C49.0122 32.5794 50.8428 30.8903 50.8428 28.489Z"></path>
<path fill="black" d="M68.4663 22.1464V34.2655C68.4663 39.2507 65.412 41.2868 61.8013 41.2868C58.4024 41.2868 56.3567 39.0985 55.5853 37.309L58.2664 36.2346C58.7439 37.3333 59.9137 38.6298 61.7981 38.6298C64.1094 38.6298 65.5417 37.2572 65.5417 34.6733V33.7024H65.4342C64.7449 34.5211 63.4169 35.2364 61.7412 35.2364C58.2348 35.2364 55.0225 32.2964 55.0225 28.5133C55.0225 24.7029 58.2348 21.7385 61.7412 21.7385C63.4138 21.7385 64.7417 22.4537 65.4342 23.2481H65.5417V22.1494H68.4663V22.1464ZM65.7598 28.5133C65.7598 26.1364 64.1125 24.3985 62.0163 24.3985C59.8916 24.3985 58.1115 26.1364 58.1115 28.5133C58.1115 30.8659 59.8916 32.5794 62.0163 32.5794C64.1125 32.5794 65.7598 30.8659 65.7598 28.5133Z"></path>
<path fill="black" d="M73.2879 15.043V34.8256H70.2842V15.043H73.2879Z"></path>
<path fill="black" d="M84.9927 30.7108L87.383 32.2447C86.6116 33.3434 84.7525 35.2365 81.5401 35.2365C77.5563 35.2365 74.5811 32.2721 74.5811 28.486C74.5811 24.4717 77.5816 21.7356 81.1955 21.7356C84.8347 21.7356 86.6147 24.5234 87.1965 26.0299L87.5158 26.7969L78.1412 30.5343C78.8589 31.8886 79.975 32.5795 81.5401 32.5795C83.1083 32.5795 84.196 31.8369 84.9927 30.7108ZM77.6353 28.2821L83.9019 25.7773C83.5573 24.9343 82.5202 24.3469 81.2998 24.3469C79.7347 24.3469 77.5563 25.6769 77.6353 28.2821Z"></path>
<path fill="black" d="M13.3067 26.7329V23.869H23.3327C23.4307 24.3682 23.4813 24.9586 23.4813 25.5977C23.4813 27.7464 22.8711 30.4034 20.9045 32.2964C18.9916 34.2138 16.5475 35.2364 13.3099 35.2364C7.30887 35.2364 2.2627 30.5312 2.2627 24.7547C2.2627 18.9782 7.30887 14.2729 13.3099 14.2729C16.6298 14.2729 18.9948 15.5269 20.7717 17.1612L18.6723 19.1821C17.3981 18.0316 15.6717 17.1369 13.3067 17.1369C8.92453 17.1369 5.49718 20.5364 5.49718 24.7547C5.49718 28.9729 8.92453 32.3725 13.3067 32.3725C16.1492 32.3725 17.768 31.2738 18.805 30.2756C19.6461 29.466 20.1994 28.3095 20.4175 26.7299L13.3067 26.7329Z"></path>
</g>
<defs>
<clipPath id="clip0_16970_21877">
<rect transform="translate(2.14844 14.1299)" fill="white" height="28" width="86"></rect>
</clipPath>
</defs>
</svg>
